<svg xmlns="http://www.w3.org/2000/svg" viewBox="0 0 660 158.86"><defs><style>.cls-1{fill:#19afe6;}.cls-2{fill:#4cab48;}.cls-3{fill:#074d82;}</style></defs><title>logo-ostbelgien</title><g id="Ebene_2" data-name="Ebene 2"><g id="Ebene_1-2" data-name="Ebene 1"><g id="Layer_2" data-name="Layer 2"><g id="Layer_1-2" data-name="Layer 1-2"><path class="cls-1" d="M572.23,38.3a85.81,85.81,0,0,0,34.48-8.25,26.1,26.1,0,0,0-14.15-4.13c-6.52,0-17.16,3.71-32.25,3.71a54.46,54.46,0,0,1-32.63-9.69,59.29,59.29,0,0,0,44.55,18.44"/><path class="cls-1" d="M656.08,16.6a63.52,63.52,0,0,0-17-2.43,37.51,37.51,0,0,0-6.35.37c1.11,1.32,2.43,2.8,3.54,4.12a57.11,57.11,0,0,1,19.76-2.06"/><path class="cls-2" d="M529.37,25.26c10.06,10.07,27,15.84,42.69,15.84A96.31,96.31,0,0,0,609.18,32a29.59,29.59,0,0,1,6.36,7.26C603.41,46,593,51.62,577.71,51.62a61,61,0,0,1-48.34-26.36"/><path class="cls-2" d="M640.61,25.26A44.25,44.25,0,0,0,638,21.34a59.79,59.79,0,0,1,15.46-2.06,40.47,40.47,0,0,1,6.52.37,76.19,76.19,0,0,0-19.39,5.57"/><path class="cls-3" d="M446.3,106.68c-.58-7.09-4.13-12.37-11.72-12.37a12.38,12.38,0,0,0-11.92,12.37Zm12.37,8.95H422.83a14.31,14.31,0,0,0,15.63,11.76,33.6,33.6,0,0,0,19-4.87l-1.86,9.9A33,33,0,0,1,437,137.25c-17.33,0-27.76-10.44-27.76-26.11a24.46,24.46,0,0,1,22.94-25.89c.86,0,1.73,0,2.59,0,15.47,0,24.05,10.65,24.05,25.91ZM77.88,126.28a6.44,6.44,0,0,1,6-6.88h.39a5.73,5.73,0,0,1,6.23,5.18,5.67,5.67,0,0,1-.25,2.28,12.78,12.78,0,0,0,6.89,1.69c5.77,0,9.53-2.22,9.53-6.51s-3.18-5-9.53-6.73l-3.55-.74c-8.58-2.23-14.93-5.4-14.93-13.78,0-9.69,7.63-15.46,21.45-15.46s20.33,4.82,20.33,10.8a6.26,6.26,0,0,1-5.62,6.86,4.53,4.53,0,0,1-.52,0,5.65,5.65,0,0,1-6.12-5.14,5.58,5.58,0,0,1,.34-2.49,12.77,12.77,0,0,0-6.72-1.48c-6.15,0-9.49,2.22-9.49,6.35s3.55,5,10.07,6.52l3.34.94c9.11,2.23,15.09,5.2,15.09,14,0,9.53-8,15.67-22.19,15.67S78,132.55,78,126.36m277.68-6.23V100.91A14.52,14.52,0,0,0,344.83,96a13.21,13.21,0,0,0-13.66,12.73,14.87,14.87,0,0,0,.05,1.63,13.2,13.2,0,0,0,12,14.31,14.79,14.79,0,0,0,1.63,0,15.14,15.14,0,0,0,10.81-4.66M373.7,97h-5.19v37.12c0,15.31-9.9,24.75-27.23,24.75-14.72,0-22-5.61-22-12.13a6.55,6.55,0,0,1,5.63-7.36,6.24,6.24,0,0,1,1-.06,5.91,5.91,0,0,1,6.39,5.36,6,6,0,0,1-.25,2.27,11.66,11.66,0,0,0,8.79,2.6c9.69,0,14.93-5.61,14.93-15.67v-4.13A21.57,21.57,0,0,1,341,135.31c-14,0-23.09-10.64-23.09-25s8.91-25,23.09-25a21.6,21.6,0,0,1,14.61,5.48V86.39H373.7Zm151.22,28.5v10.73H505.74V107.34c0-6.88-3-10.8-9.49-10.8a14.74,14.74,0,0,0-11.76,6.68v33h-13V97h-6.35V86.39h19.38v6.72A21.16,21.16,0,0,1,501,85.28c12.38,0,17.9,8,17.9,19.55v20.62ZM383,72.57a7.68,7.68,0,0,1,7.7-7.65l.55,0a7.23,7.23,0,0,1,8,6.34,8.48,8.48,0,0,1,0,1.13,7.33,7.33,0,0,1-7,7.65,7.22,7.22,0,0,1-1,0,7.63,7.63,0,0,1-8.22-7l0-.48m15.47,63.65H385.25V97h-5.4V86.39h18.64ZM312.7,125.53v10.69H292.9V71.46h-6.15V60.86h19.76v64.67Zm-42.32-18.85c-.58-7.09-4.13-12.37-11.76-12.37a12.38,12.38,0,0,0-11.92,12.37Zm12.37,8.95H246.91a14.31,14.31,0,0,0,15.67,11.76,33.58,33.58,0,0,0,19-4.87l-1.86,9.9a33,33,0,0,1-18.64,4.83c-17.33,0-27.76-10.44-27.76-26.11a24.46,24.46,0,0,1,22.94-25.89c.87,0,1.73,0,2.59,0,15.47,0,24.05,10.65,24.05,25.91Zm-70.9-4.45a13.61,13.61,0,0,0-12.23-14.87,14.09,14.09,0,0,0-1.59-.06,14.61,14.61,0,0,0-11,4.82v20.34a14.58,14.58,0,0,0,11,4.87c8.25,0,13.78-6.15,13.78-15.1m13.4,0c0,14.72-9.32,26.11-23.3,26.11A22.17,22.17,0,0,1,187,131.51v4.71H174.19V71.46h-6.31V60.86h19.18v30.4a21.29,21.29,0,0,1,15.1-6c14.14,0,23.3,11.38,23.3,25.9m-59.52,11.34-2.06,11.76a18.07,18.07,0,0,1-11.18,3c-11.55,0-18.64-6.35-18.64-19.18V97h-7.63V86.39h7.67V71.66l13.24-4.12v19H165V97.2H147.34V116c0,6.72,3.34,9.48,8.58,9.48a18.51,18.51,0,0,0,10.06-2.8m-110-21c0-14-8.74-22.73-20.87-22.73s-20.62,8.75-20.62,22.73,8.58,22.73,20.62,22.73S56,115.59,56,101.65M0,101.86A34.08,34.08,0,0,1,32.36,66.12c.92,0,1.83-.05,2.74,0A33.45,33.45,0,0,1,70.16,97.86a30.27,30.27,0,0,1,0,3.3,34.6,34.6,0,0,1-33,36.14c-.68,0-1.37,0-2.06,0A33.86,33.86,0,0,1,0,104.72c0-1,0-1.91,0-2.86"/><path class="cls-3" d="M644.9,52.44a52.36,52.36,0,1,1-104.72,0,55.83,55.83,0,0,1,1.11-11.17,66,66,0,0,0,21.61,11,29.54,29.54,0,1,0,59.07.37A29.16,29.16,0,0,0,593.1,23.16h-.58c-6.89,0-19,3.71-31.88,3.71a52.69,52.69,0,0,1-35.23-12.13,31.68,31.68,0,0,0,13,2.81c20.63,0,26.65-17.53,54-17.53a51,51,0,0,1,52.34,49.67q0,1.34,0,2.67"/></g></g></g></g></svg>